<svg xmlns="http://www.w3.org/2000/svg" viewBox="0 0 512 512">
  <path fill="#5ac2ad" d="M499.327 91.248H12.673C5.674 91.248 0 96.921 0 103.921v304.158c0 6.999 5.674 12.673 12.673 12.673h486.654c6.999 0 12.673-5.674 12.673-12.673V103.921c0-7-5.674-12.673-12.673-12.673z"/>
  <path fill="#1da49c" d="M499.327 91.248H236.99v329.505h262.337c6.999 0 12.673-5.674 12.673-12.673V103.921c0-7-5.674-12.673-12.673-12.673z"/>
  <g fill="#198f88">
    <path d="M236.99 91.248h38.02v329.505h-38.02z"/>
    <path d="M256 176.158c-6.551 0-12.914.81-19.01 2.305v40.304a41.552 41.552 0 0 1 19.01-4.589c23.06 0 41.822 18.762 41.822 41.822S279.06 297.822 256 297.822a41.552 41.552 0 0 1-19.01-4.589v40.304a79.707 79.707 0 0 0 19.01 2.305c44.024 0 79.842-35.817 79.842-79.842S300.024 176.158 256 176.158z"/>
  </g>
  <path fill="#1da49c" d="M214.178 256c0-16.217 9.284-30.298 22.812-37.233v-40.304c-34.874 8.553-60.832 40.063-60.832 77.536s25.957 68.984 60.832 77.536v-40.304c-13.527-6.933-22.812-21.014-22.812-37.231z"/>
  <path fill="#198f88" d="M446.834 195.168H512v121.663h-65.166z"/>
  <path fill="#1da49c" d="M0 195.168h65.166v121.663H0z"/>
</svg>